<svg width="20" height="20" viewBox="0 0 20 20" fill="none" xmlns="http://www.w3.org/2000/svg">
<g clip-path="url(#clip0_124_12411)">
<path d="M7.575 7.49996C7.77092 6.94302 8.15762 6.47338 8.66663 6.17424C9.17563 5.87509 9.77408 5.76574 10.356 5.86555C10.9379 5.96536 11.4657 6.2679 11.8459 6.71957C12.2261 7.17124 12.4342 7.74289 12.4333 8.33329C12.4333 9.99996 9.93333 10.8333 9.93333 10.8333M10 14.1666H10.0083M18.3333 9.99996C18.3333 14.6023 14.6024 18.3333 10 18.3333C5.39762 18.3333 1.66666 14.6023 1.66666 9.99996C1.66666 5.39759 5.39762 1.66663 10 1.66663C14.6024 1.66663 18.3333 5.39759 18.3333 9.99996Z" stroke="#8E8E8E" stroke-width="1.66667" stroke-linecap="round" stroke-linejoin="round"/>
</g>
<defs>
<clipPath id="clip0_124_12411">
<rect width="20" height="20" fill="white"/>
</clipPath>
</defs>
</svg>
