<svg width="6" height="4" viewBox="0 0 6 4" fill="none" xmlns="http://www.w3.org/2000/svg">
<path d="M3.00872 3.39799C2.95634 3.39824 2.90445 3.38802 2.85608 3.36794C2.8077 3.34786 2.76383 3.31832 2.72702 3.28106L0.0695329 0.623568C0.0165292 0.546024 -0.00738942 0.452254 0.00199544 0.358796C0.0113803 0.265338 0.0534659 0.178195 0.12083 0.112738C0.188193 0.047281 0.276507 0.007714 0.370196 0.00101545C0.463885 -0.00568309 0.556931 0.0209173 0.632921 0.0761249L3.00872 2.43598L5.38452 0.0761249C5.45944 0.0275509 5.54849 0.00553565 5.63741 0.0136078C5.72634 0.0216799 5.80997 0.0593721 5.87492 0.120643C5.93987 0.181914 5.98236 0.263215 5.9956 0.351516C6.00883 0.439817 5.99204 0.530005 5.94791 0.607623L3.29041 3.26512C3.25498 3.30528 3.21172 3.33778 3.16328 3.36062C3.11484 3.38347 3.06225 3.39619 3.00872 3.39799Z" fill="#5A6280"/>
</svg>
