<svg width="10" height="10" viewBox="0 0 10 10" fill="none" xmlns="http://www.w3.org/2000/svg">
<g clip-path="url(#clip0_124_12651)">
<path d="M1.2467 6.8092C1.30797 6.96375 1.32161 7.13309 1.28587 7.29545L0.842117 8.66628C0.827819 8.7358 0.831516 8.80782 0.852857 8.87551C0.874198 8.9432 0.912477 9.00432 0.964062 9.05307C1.01565 9.10181 1.07883 9.13657 1.14762 9.15406C1.2164 9.17154 1.28852 9.17116 1.35712 9.15295L2.7792 8.73712C2.93242 8.70673 3.09109 8.72001 3.23712 8.77545C4.12686 9.19096 5.13477 9.27887 6.08301 9.02367C7.03126 8.76847 7.8589 8.18656 8.41991 7.3806C8.98092 6.57465 9.23925 5.59645 9.14932 4.6186C9.0594 3.64074 8.62699 2.72606 7.92839 2.03595C7.2298 1.34584 6.30991 0.924635 5.33103 0.846659C4.35214 0.768683 3.37717 1.03894 2.57813 1.60976C1.7791 2.18057 1.20734 3.01526 0.96374 3.96655C0.72014 4.91784 0.820355 5.9246 1.2467 6.8092Z" stroke="white" stroke-opacity="0.6" stroke-linecap="round" stroke-linejoin="round"/>
</g>
<defs>
<clipPath id="clip0_124_12651">
<rect width="10" height="10" fill="white"/>
</clipPath>
</defs>
</svg>
