<svg width="14" height="14" viewBox="0 0 14 14" fill="none" xmlns="http://www.w3.org/2000/svg">
<g clip-path="url(#clip0_124_12638)">
<path d="M8.06863 9.66463C8.1891 9.71995 8.32483 9.7326 8.45345 9.70047C8.58207 9.66834 8.6959 9.59336 8.77621 9.48788L8.98329 9.21663C9.09196 9.07173 9.23288 8.95413 9.39488 8.87313C9.55688 8.79213 9.73551 8.74996 9.91663 8.74996H11.6666C11.976 8.74996 12.2728 8.87288 12.4916 9.09167C12.7104 9.31046 12.8333 9.60721 12.8333 9.91663V11.6666C12.8333 11.976 12.7104 12.2728 12.4916 12.4916C12.2728 12.7104 11.976 12.8333 11.6666 12.8333C8.88185 12.8333 6.21114 11.727 4.24201 9.75791C2.27287 7.78878 1.16663 5.11807 1.16663 2.33329C1.16663 2.02387 1.28954 1.72713 1.50833 1.50833C1.72713 1.28954 2.02387 1.16663 2.33329 1.16663H4.08329C4.39271 1.16663 4.68946 1.28954 4.90825 1.50833C5.12704 1.72713 5.24996 2.02387 5.24996 2.33329V4.08329C5.24996 4.26441 5.20779 4.44304 5.12679 4.60504C5.04579 4.76704 4.92819 4.90795 4.78329 5.01663L4.51029 5.22138C4.4032 5.30315 4.32772 5.41947 4.29667 5.55058C4.26562 5.68169 4.28092 5.81951 4.33996 5.94063C5.13719 7.55988 6.44837 8.86942 8.06863 9.66463Z" stroke="white" stroke-opacity="0.8" stroke-width="1.08889" stroke-linecap="round" stroke-linejoin="round"/>
</g>
<defs>
<clipPath id="clip0_124_12638">
<rect width="14" height="14" fill="white"/>
</clipPath>
</defs>
</svg>
