<svg width="36" height="36" viewBox="0 0 36 36" fill="none" xmlns="http://www.w3.org/2000/svg">
<g clip-path="url(#clip0_144_13135)">
<rect width="36" height="36" rx="10" fill="#7A88A5"/>
<path d="M10.5 18C10.5 19.4834 10.9399 20.9334 11.764 22.1668C12.5881 23.4001 13.7594 24.3614 15.1299 24.9291C16.5003 25.4968 18.0083 25.6453 19.4632 25.3559C20.918 25.0665 22.2544 24.3522 23.3033 23.3033C24.3522 22.2544 25.0665 20.918 25.3559 19.4632C25.6453 18.0083 25.4968 16.5003 24.9291 15.1299C24.3614 13.7594 23.4001 12.5881 22.1668 11.764C20.9334 10.9399 19.4834 10.5 18 10.5C15.9033 10.5079 13.8908 11.326 12.3833 12.7833L10.5 14.6667M14.6667 14.6667H10.5V10.5" stroke="white" stroke-width="1.4" stroke-linecap="round" stroke-linejoin="round"/>
</g>
<rect x="0.5" y="0.5" width="35" height="35" rx="9.5" stroke="#7A88A5"/>
<defs>
<clipPath id="clip0_144_13135">
<rect width="36" height="36" rx="10" fill="white"/>
</clipPath>
</defs>
</svg>
