<svg width="36" height="36" viewBox="0 0 36 36" fill="none" xmlns="http://www.w3.org/2000/svg">
<g clip-path="url(#clip0_144_13110)">
<rect width="36" height="36" rx="10" fill="#CC825F"/>
<path d="M20.0725 14.5483C19.9489 14.4744 19.8464 14.3697 19.7753 14.2444C19.7042 14.119 19.6668 13.9774 19.6667 13.8333V9.66667M19.6667 9.66667L13 9.66667C12.558 9.66667 12.1341 9.84226 11.8215 10.1548C11.509 10.4674 11.3334 10.8913 11.3334 11.3333V24.6667C11.3334 25.1087 11.509 25.5326 11.8215 25.8452C12.1341 26.1577 12.558 26.3333 13 26.3333H23C23.4421 26.3333 23.866 26.1577 24.1786 25.8452C24.4911 25.5326 24.6667 25.1087 24.6667 24.6667V24.3708M19.6667 9.66667C19.9305 9.66624 20.1918 9.718 20.4355 9.81897C20.6792 9.91995 20.9005 10.0681 21.0867 10.255L23.1834 12.3517M14.6667 23H15.5M19.97 19.3617C19.7719 19.5597 19.6269 19.8044 19.5484 20.0733L18.8509 22.465C18.83 22.5367 18.8287 22.6127 18.8472 22.6851C18.8658 22.7574 18.9034 22.8235 18.9562 22.8763C19.0091 22.9291 19.0751 22.9668 19.1475 22.9853C19.2198 23.0038 19.2958 23.0026 19.3675 22.9817L21.7592 22.2842C22.0281 22.2056 22.2729 22.0606 22.4709 21.8625L25.815 18.5217C26.147 18.1897 26.3335 17.7395 26.3335 17.27C26.3335 16.8005 26.147 16.3503 25.815 16.0183C25.4831 15.6864 25.0328 15.4999 24.5634 15.4999C24.0939 15.4999 23.6437 15.6864 23.3117 16.0183L19.97 19.3617Z" stroke="white" stroke-width="1.4" stroke-linecap="round" stroke-linejoin="round"/>
</g>
<rect x="0.5" y="0.5" width="35" height="35" rx="9.5" stroke="#CC825F"/>
<defs>
<clipPath id="clip0_144_13110">
<rect width="36" height="36" rx="10" fill="white"/>
</clipPath>
</defs>
</svg>
