<svg width="36" height="36" viewBox="0 0 36 36" fill="none" xmlns="http://www.w3.org/2000/svg">
<g clip-path="url(#clip0_144_13158)">
<rect width="36" height="36" rx="10" fill="#6387D6"/>
<path d="M13 19.6667C13 21.8304 13.7018 23.9357 15 25.6667C15.2652 26.0203 15.66 26.2541 16.0976 26.3166C16.5352 26.3791 16.9797 26.2652 17.3333 26C17.687 25.7348 17.9207 25.34 17.9832 24.9024C18.0458 24.4648 17.9319 24.0203 17.6667 23.6667C16.8012 22.5127 16.3333 21.1091 16.3333 19.6667M14.6667 13V19.6667M17.1667 13C19.7011 13.0653 22.1783 12.2396 24.1667 10.6667C24.2905 10.5738 24.4377 10.5173 24.5918 10.5034C24.746 10.4895 24.9009 10.5188 25.0393 10.588C25.1778 10.6572 25.2942 10.7636 25.3755 10.8952C25.4569 11.0269 25.5 11.1786 25.5 11.3333V21.3333C25.5 21.4881 25.4569 21.6398 25.3755 21.7714C25.2942 21.9031 25.1778 22.0095 25.0393 22.0787C24.9009 22.1479 24.746 22.1772 24.5918 22.1633C24.4377 22.1494 24.2905 22.0929 24.1667 22C22.1783 20.4271 19.7011 19.6014 17.1667 19.6667H12.1667C11.7246 19.6667 11.3007 19.4911 10.9882 19.1785C10.6756 18.866 10.5 18.442 10.5 18V14.6667C10.5 14.2246 10.6756 13.8007 10.9882 13.4882C11.3007 13.1756 11.7246 13 12.1667 13H17.1667Z" stroke="white" stroke-width="1.4" stroke-linecap="round" stroke-linejoin="round"/>
</g>
<defs>
<clipPath id="clip0_144_13158">
<rect width="36" height="36" rx="10" fill="white"/>
</clipPath>
</defs>
</svg>
