<svg width="10" height="10" viewBox="0 0 10 10" fill="none" xmlns="http://www.w3.org/2000/svg">
<g opacity="0.7">
<path d="M5.00004 7.0835V9.16683Z" fill="#19289A"/>
<path d="M3.75004 4.4835C3.74996 4.63853 3.70663 4.79047 3.62492 4.92223C3.54322 5.05399 3.42638 5.16034 3.28754 5.22933L2.54587 5.60433C2.40704 5.67332 2.2902 5.77967 2.20849 5.91143C2.12679 6.04319 2.08346 6.19513 2.08337 6.35016V6.66683C2.08337 6.77734 2.12727 6.88332 2.20541 6.96146C2.28355 7.0396 2.38953 7.0835 2.50004 7.0835H7.50004C7.61055 7.0835 7.71653 7.0396 7.79467 6.96146C7.87281 6.88332 7.91671 6.77734 7.91671 6.66683V6.35016C7.91663 6.19513 7.8733 6.04319 7.79159 5.91143C7.70989 5.77967 7.59305 5.67332 7.45421 5.60433L6.71254 5.22933C6.5737 5.16034 6.45686 5.05399 6.37516 4.92223C6.29345 4.79047 6.25012 4.63853 6.25004 4.4835V2.91683C6.25004 2.80632 6.29394 2.70034 6.37208 2.6222C6.45022 2.54406 6.5562 2.50016 6.66671 2.50016C6.88772 2.50016 7.09968 2.41237 7.25596 2.25609C7.41224 2.0998 7.50004 1.88784 7.50004 1.66683C7.50004 1.44582 7.41224 1.23385 7.25596 1.07757C7.09968 0.921293 6.88772 0.833496 6.66671 0.833496H3.33337C3.11236 0.833496 2.9004 0.921293 2.74412 1.07757C2.58784 1.23385 2.50004 1.44582 2.50004 1.66683C2.50004 1.88784 2.58784 2.0998 2.74412 2.25609C2.9004 2.41237 3.11236 2.50016 3.33337 2.50016C3.44388 2.50016 3.54986 2.54406 3.628 2.6222C3.70614 2.70034 3.75004 2.80632 3.75004 2.91683V4.4835Z" fill="#19289A"/>
<path d="M5.00004 7.0835V9.16683M3.75004 4.4835C3.74996 4.63853 3.70663 4.79047 3.62492 4.92223C3.54322 5.05399 3.42638 5.16034 3.28754 5.22933L2.54587 5.60433C2.40704 5.67332 2.2902 5.77967 2.20849 5.91143C2.12679 6.04319 2.08346 6.19513 2.08337 6.35016V6.66683C2.08337 6.77734 2.12727 6.88332 2.20541 6.96146C2.28355 7.0396 2.38953 7.0835 2.50004 7.0835H7.50004C7.61055 7.0835 7.71653 7.0396 7.79467 6.96146C7.87281 6.88332 7.91671 6.77734 7.91671 6.66683V6.35016C7.91663 6.19513 7.8733 6.04319 7.79159 5.91143C7.70989 5.77967 7.59305 5.67332 7.45421 5.60433L6.71254 5.22933C6.5737 5.16034 6.45686 5.05399 6.37516 4.92223C6.29345 4.79047 6.25012 4.63853 6.25004 4.4835V2.91683C6.25004 2.80632 6.29394 2.70034 6.37208 2.6222C6.45022 2.54406 6.5562 2.50016 6.66671 2.50016C6.88772 2.50016 7.09968 2.41237 7.25596 2.25609C7.41224 2.0998 7.50004 1.88784 7.50004 1.66683C7.50004 1.44582 7.41224 1.23385 7.25596 1.07757C7.09968 0.921293 6.88772 0.833496 6.66671 0.833496H3.33337C3.11236 0.833496 2.9004 0.921293 2.74412 1.07757C2.58784 1.23385 2.50004 1.44582 2.50004 1.66683C2.50004 1.88784 2.58784 2.0998 2.74412 2.25609C2.9004 2.41237 3.11236 2.50016 3.33337 2.50016C3.44388 2.50016 3.54986 2.54406 3.628 2.6222C3.70614 2.70034 3.75004 2.80632 3.75004 2.91683V4.4835Z" stroke="#19289A" stroke-linecap="round" stroke-linejoin="round"/>
</g>
</svg>
