<svg width="11" height="11" viewBox="0 0 11 11" fill="none" xmlns="http://www.w3.org/2000/svg">
<path d="M6.00872 7.69877C5.95634 7.69902 5.90445 7.6888 5.85608 7.66872C5.8077 7.64864 5.76383 7.61911 5.72702 7.58184L3.06953 4.92435C3.01653 4.84681 2.99261 4.75303 3.002 4.65958C3.01138 4.56612 3.05347 4.47898 3.12083 4.41352C3.18819 4.34806 3.27651 4.3085 3.3702 4.3018C3.46389 4.2951 3.55693 4.3217 3.63292 4.37691L6.00872 6.73676L8.38452 4.37691C8.45944 4.32833 8.54849 4.30632 8.63741 4.31439C8.72634 4.32246 8.80997 4.36015 8.87492 4.42142C8.93987 4.48269 8.98236 4.564 8.9956 4.6523C9.00883 4.7406 8.99204 4.83079 8.94791 4.9084L6.29041 7.5659C6.25498 7.60606 6.21172 7.63856 6.16328 7.66141C6.11484 7.68425 6.06225 7.69697 6.00872 7.69877Z" fill="white" fill-opacity="0.7"/>
</svg>
