<svg width="18" height="18" viewBox="0 0 18 18" fill="none" xmlns="http://www.w3.org/2000/svg">
<path d="M7.42069 7.3665C7.56175 6.9655 7.84018 6.62737 8.20666 6.41198C8.57314 6.1966 9.00402 6.11787 9.42299 6.18973C9.84196 6.2616 10.222 6.47942 10.4957 6.80462C10.7695 7.12982 10.9193 7.54142 10.9187 7.9665C10.9187 9.1665 9.11869 9.7665 9.11869 9.7665M9.16669 12.1665H9.17269M15.1667 9.1665C15.1667 12.4802 12.4804 15.1665 9.16669 15.1665C5.85298 15.1665 3.16669 12.4802 3.16669 9.1665C3.16669 5.8528 5.85298 3.1665 9.16669 3.1665C12.4804 3.1665 15.1667 5.8528 15.1667 9.1665Z" stroke="white" stroke-opacity="0.7" stroke-linecap="round" stroke-linejoin="round"/>
</svg>
