<svg width="18" height="18" viewBox="0 0 18 18" fill="none" xmlns="http://www.w3.org/2000/svg">
<path d="M4.91669 11.3332V9.58317C4.91669 9.42846 4.97815 9.28009 5.08754 9.17069C5.19694 9.0613 5.34531 8.99984 5.50002 8.99984H12.5C12.6547 8.99984 12.8031 9.0613 12.9125 9.17069C13.0219 9.28009 13.0834 9.42846 13.0834 9.58317V11.3332M9.00002 8.99984V6.6665M11.9167 11.3332H14.25C14.5722 11.3332 14.8334 11.5943 14.8334 11.9165V14.2498C14.8334 14.572 14.5722 14.8332 14.25 14.8332H11.9167C11.5945 14.8332 11.3334 14.572 11.3334 14.2498V11.9165C11.3334 11.5943 11.5945 11.3332 11.9167 11.3332ZM3.75002 11.3332H6.08335C6.40552 11.3332 6.66669 11.5943 6.66669 11.9165V14.2498C6.66669 14.572 6.40552 14.8332 6.08335 14.8332H3.75002C3.42785 14.8332 3.16669 14.572 3.16669 14.2498V11.9165C3.16669 11.5943 3.42785 11.3332 3.75002 11.3332ZM7.83335 3.1665H10.1667C10.4889 3.1665 10.75 3.42767 10.75 3.74984V6.08317C10.75 6.40534 10.4889 6.6665 10.1667 6.6665H7.83335C7.51119 6.6665 7.25002 6.40534 7.25002 6.08317V3.74984C7.25002 3.42767 7.51119 3.1665 7.83335 3.1665Z" stroke="white" stroke-opacity="0.7" stroke-linecap="round" stroke-linejoin="round"/>
</svg>
