<svg width="14" height="14" viewBox="0 0 14 14" fill="none" xmlns="http://www.w3.org/2000/svg">
<path d="M6.98838 4.73467C7.05821 4.73434 7.1274 4.74796 7.1919 4.77473C7.2564 4.8015 7.3149 4.84089 7.36397 4.89057L10.9073 8.4339C10.978 8.53729 11.0099 8.66231 10.9973 8.78693C10.9848 8.91154 10.9287 9.02773 10.8389 9.115C10.7491 9.20228 10.6313 9.25503 10.5064 9.26397C10.3815 9.2729 10.2574 9.23743 10.1561 9.16382L6.98838 6.01735L3.82065 9.16382C3.72075 9.22859 3.60201 9.25794 3.48345 9.24718C3.36489 9.23641 3.25337 9.18616 3.16678 9.10446C3.08018 9.02277 3.02352 8.91437 3.00587 8.79663C2.98823 8.6789 3.01062 8.55865 3.06946 8.45516L6.61278 4.91183C6.66003 4.85829 6.71771 4.81495 6.7823 4.78449C6.84688 4.75402 6.91701 4.73707 6.98838 4.73467Z" fill="black" fill-opacity="0.7"/>
</svg>
