<svg width="14" height="14" viewBox="0 0 14 14" fill="none" xmlns="http://www.w3.org/2000/svg">
<path d="M9.26533 6.98838C9.26566 7.05821 9.25204 7.1274 9.22527 7.1919C9.1985 7.2564 9.15911 7.3149 9.10943 7.36397L5.5661 10.9073C5.46271 10.978 5.33769 11.0099 5.21307 10.9973C5.08846 10.9848 4.97227 10.9287 4.885 10.8389C4.79772 10.7491 4.74497 10.6313 4.73603 10.5064C4.7271 10.3815 4.76257 10.2574 4.83618 10.1561L7.98265 6.98838L4.83618 3.82065C4.77141 3.72075 4.74206 3.60201 4.75282 3.48345C4.76359 3.36489 4.81384 3.25337 4.89554 3.16677C4.97723 3.08018 5.08563 3.02352 5.20337 3.00587C5.3211 2.98823 5.44135 3.01062 5.54484 3.06946L9.08817 6.61278C9.14171 6.66003 9.18505 6.71771 9.21551 6.78229C9.24598 6.84688 9.26293 6.91701 9.26533 6.98838Z" fill="black" fill-opacity="0.7"/>
</svg>
