<svg width="18" height="18" viewBox="0 0 18 18" fill="none" xmlns="http://www.w3.org/2000/svg">
<path d="M7.5 15L10.5 15" stroke="white" stroke-miterlimit="10" stroke-linecap="round"/>
<path d="M9 3.75V3" stroke="white" stroke-miterlimit="10" stroke-linecap="round"/>
<path d="M14.25 12.75H3.75L5.25 11.25V7.5C5.25 5.3265 6.75 3.75 9 3.75C11.25 3.75 12.75 5.3265 12.75 7.5V11.25L14.25 12.75Z" stroke="white" stroke-linejoin="round"/>
<path d="M12.5613 9.50781C14.4943 9.50781 16.0613 7.94081 16.0613 6.00781C16.0613 4.07482 14.4943 2.50781 12.5613 2.50781C10.6283 2.50781 9.06128 4.07482 9.06128 6.00781C9.06128 7.94081 10.6283 9.50781 12.5613 9.50781Z" fill="#ED1C24"/>
<path d="M12.5836 8.15332C11.6637 8.15332 11.0192 7.65527 11.025 6.96387C11.0192 6.41895 11.4117 5.97363 11.9098 5.89746V5.87402C11.4762 5.77441 11.1832 5.3877 11.1832 4.9248C11.1832 4.27441 11.775 3.79395 12.5836 3.79395C13.3864 3.79395 13.9723 4.27441 13.9781 4.9248C13.9723 5.3877 13.6793 5.77441 13.2516 5.87402V5.89746C13.7438 5.97363 14.1364 6.41895 14.1422 6.96387C14.1364 7.65527 13.4918 8.15332 12.5836 8.15332ZM12.5836 7.62012C13.1344 7.62012 13.486 7.33301 13.486 6.91699C13.486 6.47754 13.1051 6.16113 12.5836 6.16113C12.0563 6.16113 11.6696 6.47754 11.6813 6.91699C11.6696 7.33301 12.0211 7.62012 12.5836 7.62012ZM12.5836 5.65137C13.0289 5.65137 13.3453 5.38184 13.3453 4.9834C13.3453 4.59082 13.0348 4.32129 12.5836 4.32129C12.1149 4.32129 11.8102 4.58496 11.8102 4.9834C11.8102 5.38184 12.1324 5.65137 12.5836 5.65137Z" fill="white"/>
</svg>
