<svg width="14" height="14" viewBox="0 0 14 14" fill="none" xmlns="http://www.w3.org/2000/svg">
<path d="M6.98838 4.73448C7.05821 4.73415 7.1274 4.74778 7.1919 4.77455C7.2564 4.80132 7.3149 4.8407 7.36397 4.89039L10.9073 8.43371C10.978 8.5371 11.0099 8.66213 10.9973 8.78674C10.9848 8.91135 10.9287 9.02754 10.8389 9.11482C10.7491 9.2021 10.6313 9.25485 10.5064 9.26378C10.3815 9.27271 10.2574 9.23725 10.1561 9.16364L6.98838 6.01717L3.82065 9.16364C3.72075 9.2284 3.60201 9.25776 3.48345 9.24699C3.36489 9.23623 3.25337 9.18597 3.16678 9.10428C3.08018 9.02259 3.02352 8.91418 3.00587 8.79645C2.98823 8.67871 3.01062 8.55846 3.06946 8.45497L6.61278 4.91165C6.66003 4.8581 6.71771 4.81477 6.7823 4.7843C6.84688 4.75384 6.91701 4.73689 6.98838 4.73448Z" fill="black" fill-opacity="0.7"/>
</svg>
