<svg width="14" height="14" viewBox="0 0 14 14" fill="none" xmlns="http://www.w3.org/2000/svg">
<path d="M6.72283 1.33853C6.74839 1.28688 6.78788 1.2434 6.83684 1.21301C6.8858 1.18261 6.94228 1.1665 6.99991 1.1665C7.05754 1.1665 7.11402 1.18261 7.16298 1.21301C7.21194 1.2434 7.25143 1.28688 7.27699 1.33853L8.62449 4.06794C8.71326 4.24759 8.8443 4.40301 9.00636 4.52087C9.16842 4.63873 9.35665 4.71551 9.55491 4.74461L12.5684 5.18561C12.6255 5.19388 12.6792 5.21797 12.7233 5.25514C12.7674 5.29232 12.8002 5.3411 12.8181 5.39596C12.8359 5.45083 12.8381 5.5096 12.8243 5.56561C12.8104 5.62163 12.7812 5.67266 12.7399 5.71294L10.5606 7.83511C10.4169 7.97517 10.3093 8.14806 10.2472 8.33889C10.1851 8.52973 10.1704 8.73279 10.2042 8.93061L10.7187 11.9289C10.7287 11.986 10.7226 12.0448 10.7009 12.0985C10.6792 12.1522 10.6428 12.1988 10.5959 12.2329C10.549 12.2669 10.4935 12.2871 10.4357 12.2911C10.3778 12.2952 10.3201 12.2828 10.2689 12.2556L7.57508 10.8393C7.39758 10.7461 7.2001 10.6974 6.99962 10.6974C6.79914 10.6974 6.60166 10.7461 6.42416 10.8393L3.73091 12.2556C3.67977 12.2827 3.62206 12.2949 3.56434 12.2908C3.50662 12.2867 3.45121 12.2664 3.40442 12.2324C3.35762 12.1984 3.32131 12.1519 3.29963 12.0982C3.27794 12.0446 3.27174 11.9859 3.28174 11.9289L3.79566 8.93119C3.82961 8.73329 3.8149 8.53009 3.75281 8.33914C3.69071 8.14818 3.5831 7.9752 3.43924 7.83511L1.25991 5.71353C1.21826 5.67329 1.18874 5.62217 1.17472 5.56599C1.1607 5.5098 1.16275 5.4508 1.18062 5.39572C1.1985 5.34064 1.23148 5.29168 1.27582 5.25443C1.32016 5.21718 1.37407 5.19313 1.43141 5.18503L4.44433 4.74461C4.64281 4.71573 4.8313 4.63906 4.99358 4.52118C5.15586 4.40331 5.28707 4.24777 5.37591 4.06794L6.72283 1.33853Z" fill="#FFD652"/>
</svg>
