<svg width="14" height="14" viewBox="0 0 14 14" fill="none" xmlns="http://www.w3.org/2000/svg">
<path d="M6.12504 9.91683C8.21912 9.91683 9.91671 8.21924 9.91671 6.12516C9.91671 4.03108 8.21912 2.3335 6.12504 2.3335C4.03096 2.3335 2.33337 4.03108 2.33337 6.12516C2.33337 8.21924 4.03096 9.91683 6.12504 9.91683Z" stroke="white" stroke-opacity="0.7" stroke-width="1.5" stroke-miterlimit="10"/>
<path d="M11.1363 12.197C11.4292 12.4899 11.9041 12.4899 12.197 12.197C12.4899 11.9041 12.4899 11.4292 12.197 11.1363L11.6667 11.6667L11.1363 12.197ZM8.75 8.75L8.21967 9.28033L11.1363 12.197L11.6667 11.6667L12.197 11.1363L9.28033 8.21967L8.75 8.75Z" fill="white" fill-opacity="0.7"/>
</svg>
