<svg width="12" height="12" viewBox="0 0 12 12" fill="none" xmlns="http://www.w3.org/2000/svg">
<path opacity="0.4" d="M7.5 10.5002V6.50024C7.5 6.36763 7.44732 6.24045 7.35355 6.14669C7.25979 6.05292 7.13261 6.00024 7 6.00024H5C4.86739 6.00024 4.74021 6.05292 4.64645 6.14669C4.55268 6.24045 4.5 6.36763 4.5 6.50024V10.5002M1.5 5.00024C1.49997 4.85477 1.53167 4.71105 1.59289 4.5791C1.65412 4.44715 1.7434 4.33014 1.8545 4.23624L5.3545 1.23624C5.53499 1.08369 5.76368 1 6 1C6.23632 1 6.46501 1.08369 6.6455 1.23624L10.1455 4.23624C10.2566 4.33014 10.3459 4.44715 10.4071 4.5791C10.4683 4.71105 10.5 4.85477 10.5 5.00024V9.50024C10.5 9.76546 10.3946 10.0198 10.2071 10.2073C10.0196 10.3949 9.76522 10.5002 9.5 10.5002H2.5C2.23478 10.5002 1.98043 10.3949 1.79289 10.2073C1.60536 10.0198 1.5 9.76546 1.5 9.50024V5.00024Z" stroke="#19289A" stroke-linecap="round" stroke-linejoin="round"/>
</svg>
