<svg width="14" height="14" viewBox="0 0 14 14" fill="none" xmlns="http://www.w3.org/2000/svg">
<path d="M4.73467 6.98838C4.73434 7.05821 4.74796 7.1274 4.77473 7.1919C4.8015 7.2564 4.84089 7.3149 4.89057 7.36397L8.4339 10.9073C8.53729 10.978 8.66231 11.0099 8.78693 10.9973C8.91154 10.9848 9.02773 10.9287 9.115 10.8389C9.20228 10.7491 9.25503 10.6313 9.26397 10.5064C9.2729 10.3815 9.23743 10.2574 9.16382 10.1561L6.01735 6.98838L9.16382 3.82065C9.22859 3.72075 9.25794 3.60201 9.24718 3.48345C9.23641 3.36489 9.18616 3.25337 9.10446 3.16677C9.02277 3.08018 8.91437 3.02352 8.79663 3.00587C8.6789 2.98823 8.55865 3.01062 8.45516 3.06946L4.91183 6.61278C4.85829 6.66003 4.81495 6.71771 4.78449 6.78229C4.75402 6.84688 4.73707 6.91701 4.73467 6.98838Z" fill="black" fill-opacity="0.7"/>
</svg>
