<svg width="14" height="14" viewBox="0 0 14 14" fill="none" xmlns="http://www.w3.org/2000/svg">
<path d="M7.58332 12.25H12.25M12.3515 3.97366C12.6599 3.66533 12.8332 3.2471 12.8332 2.811C12.8333 2.37489 12.6601 1.95662 12.3518 1.64821C12.0434 1.33979 11.6252 1.1665 11.1891 1.16644C10.753 1.16639 10.3347 1.33958 10.0263 1.64792L2.24115 9.43483C2.10571 9.56987 2.00555 9.73614 1.94948 9.919L1.1789 12.4577C1.16382 12.5081 1.16268 12.5617 1.1756 12.6127C1.18852 12.6638 1.21502 12.7104 1.25228 12.7476C1.28954 12.7848 1.33618 12.8112 1.38724 12.824C1.4383 12.8369 1.49189 12.8357 1.54232 12.8205L4.08157 12.0505C4.26425 11.9949 4.4305 11.8954 4.56573 11.7606L12.3515 3.97366Z" stroke="#5A6280" stroke-linecap="round" stroke-linejoin="round"/>
</svg>
