<svg preserveAspectRatio="none" width="100%" height="100%" overflow="visible" style="display: block;" viewBox="0 0 24 24" fill="none" xmlns="http://www.w3.org/2000/svg">
<g id="lucide/mails">
<path id="Vector" d="M17 19C17 19.5304 16.7893 20.0391 16.4142 20.4142C16.0391 20.7893 15.5304 21 15 21H4C3.46957 21 2.96086 20.7893 2.58579 20.4142C2.21071 20.0391 2 19.5304 2 19V11C2.00001 10.6489 2.09243 10.3041 2.26796 10C2.4435 9.696 2.69597 9.44353 3 9.268M22 5.5L15.581 9.679C15.2585 9.88617 14.8833 9.99631 14.5 9.99631C14.1167 9.99631 13.7415 9.88617 13.419 9.679L7 5.5M9 3H20C21.1046 3 22 3.89543 22 5V13C22 14.1046 21.1046 15 20 15H9C7.89543 15 7 14.1046 7 13V5C7 3.89543 7.89543 3 9 3Z" stroke="#5E5DD4" stroke-width="3" stroke-linecap="round" stroke-linejoin="round"/>
</g>
</svg>
