<svg preserveAspectRatio="none" width="100%" height="100%" overflow="visible" style="display: block;" viewBox="0 0 16.4 16.4" fill="none" xmlns="http://www.w3.org/2000/svg">
<path id="Vector" d="M0.7 8.2C0.7 9.68336 1.13987 11.1334 1.96398 12.3668C2.78809 13.6001 3.95943 14.5614 5.32987 15.1291C6.70032 15.6968 8.20832 15.8453 9.66318 15.5559C11.118 15.2665 12.4544 14.5522 13.5033 13.5033C14.5522 12.4544 15.2665 11.118 15.5559 9.66318C15.8453 8.20832 15.6968 6.70032 15.1291 5.32988C14.5614 3.95943 13.6001 2.78809 12.3668 1.96398C11.1334 1.13987 9.68336 0.700005 8.2 0.700005C6.10329 0.707893 4.09081 1.52602 2.58333 2.98334L0.7 4.86667M4.86667 4.86667H0.7V0.700005" stroke="#ffffff" stroke-width="1.4" stroke-linecap="round" stroke-linejoin="round"/>
</svg>
