<svg preserveAspectRatio="none" width="100%" height="100%" overflow="visible" style="display: block;" viewBox="0 0 16.4001 18.0667" fill="none" xmlns="http://www.w3.org/2000/svg">
<path id="Vector" d="M9.43917 5.58167C9.31548 5.50775 9.21307 5.40302 9.14194 5.2777C9.07081 5.15238 9.03339 5.01077 9.03333 4.86667V0.700003M9.03333 0.700003L2.36667 0.700003C1.92464 0.700003 1.50072 0.875597 1.18816 1.18816C0.875595 1.50072 0.7 1.92464 0.7 2.36667V15.7C0.7 16.142 0.875595 16.566 1.18816 16.8785C1.50072 17.1911 1.92464 17.3667 2.36667 17.3667H12.3667C12.8087 17.3667 13.2326 17.1911 13.5452 16.8785C13.8577 16.566 14.0333 16.142 14.0333 15.7V15.4042M9.03333 0.700003C9.29713 0.699575 9.5584 0.751338 9.80211 0.85231C10.0458 0.953282 10.2671 1.10147 10.4533 1.28834L12.55 3.385M4.03333 14.0333H4.86667M9.33667 10.395C9.13854 10.593 8.99352 10.8378 8.915 11.1067L8.2175 13.4983C8.19659 13.57 8.19533 13.6461 8.21387 13.7184C8.23241 13.7908 8.27005 13.8568 8.32287 13.9096C8.37569 13.9624 8.44173 14.0001 8.51409 14.0186C8.58645 14.0372 8.66246 14.0359 8.73417 14.015L11.1258 13.3175C11.3947 13.239 11.6395 13.094 11.8375 12.8958L15.1817 9.555C15.5136 9.22304 15.7001 8.7728 15.7001 8.30334C15.7001 7.83387 15.5136 7.38363 15.1817 7.05167C14.8497 6.71971 14.3995 6.53321 13.93 6.53321C13.4605 6.53321 13.0103 6.71971 12.6783 7.05167L9.33667 10.395Z" stroke="#ffffff" stroke-width="1.4" stroke-linecap="round" stroke-linejoin="round"/>
</svg>
